:SAMPLES-PER-SECOND 30
:FRAME-RANGE 1-663
:FULLY-SPECIFIED
:DEGREES
477
root  -17.1051 39.9868 -74.3368 -172.95 71.1356 -176.405
RightUpLeg  -15.1531 3.50674 3.38614
RightLeg  11.9676 6.67401 0.812304
RightFoot  0.269603 0.0971672 -0.937092
RightToes  -3.4386e-010 1.2921e-014 -6.02303e-014
Spine  -6.73606 -6.62719 -5.17923
Spine1  8.98937 -7.68283 4.13622
HEad  11.2512 -11.3274 8.16778
LeftShoulder1  2.76821 -9.71559 -14.6324
LeftArm  -2.31988 -33.3217 -46.5136
LeftForeArm  -8.89955 -23.1321 -5.43976
LeftHand  0.233639 0.729736 -5.79353
RightShoulder  1.76512 2.29527 25.4636
RightArm  -13.3607 23.6581 52.682
RightForeArm  8.25437 38.086 8.28211
RightHand  0.00287862 -6.34707 -4.29108
LeftUpLeg  -6.3959 5.28062 -0.121416
LeftLeg  14.0559 18.1414 5.0186
LeftFoot  -8.67066 0.142782 -3.89417
LeftToes  -7.12384e-010 -7.51861e-011 -8.34901e-011
478
root  -16.7509 40.0078 -74.6995 -172.345 72.383 -175.958
RightUpLeg  -14.8033 3.26647 3.37446
RightLeg  12.241 7.83732 1.09699
RightFoot  0.149116 0.261832 -2.59025
RightToes  -3.4386e-010 1.2921e-014 -6.02303e-014
Spine  -6.79303 -6.9032 -4.11407
Spine1  8.80381 -7.96504 3.86828
HEad  11.511 -8.63657 6.70722
LeftShoulder1  2.71502 -9.46224 -14.639
LeftArm  -2.72433 -33.6934 -46.6513
LeftForeArm  -8.97905 -22.3998 -5.44773
LeftHand  0.231085 0.669585 -5.83659
RightShoulder  1.77327 2.29836 25.5981
RightArm  -12.4462 25.6712 52.5755
RightForeArm  7.4741 36.5379 7.87052
RightHand  0.00205942 -6.24652 -4.27752
LeftUpLeg  -5.21068 4.67929 -0.581111
LeftLeg  13.1209 20.131 5.25503
LeftFoot  -9.06191 0.131606 -3.88339
LeftToes  -7.12384e-010 -7.51861e-011 -8.34901e-011
479
root  -16.4174 40.0199 -75.0467 -171.284 73.8063 -175.195
RightUpLeg  -14.6158 3.49096 3.27763
RightLeg  12.4383 9.05609 1.33446
RightFoot  -0.353468 0.254022 -2.66386
RightToes  -3.4386e-010 1.2921e-014 -6.02303e-014
Spine  -7.66982 -6.68359 -4.38269
Spine1  10.0164 -8.28823 5.77396
HEad  10.7576 -6.48345 4.5492
LeftShoulder1  2.94474 -10.1159 -15.3778
LeftArm  -4.16103 -34.1248 -46.5488
LeftForeArm  -8.93462 -21.9661 -5.47315
LeftHand  0.232983 0.704576 -5.93335
RightShoulder  1.6558 2.11733 24.4229
RightArm  -12.4108 28.041 52.727
RightForeArm  7.37621 34.9464 7.42447
RightHand  -0.00258604 -6.15142 -4.06851
LeftUpLeg  -4.32845 4.49538 -0.957093
LeftLeg  12.3833 21.8588 5.33317
LeftFoot  -9.44802 0.122948 -4.012
LeftToes  -7.12384e-010 -7.51861e-011 -8.34901e-011
480
root  -16.0832 40.0457 -75.359 -170.24 75.1805 -174.56
RightUpLeg  -14.5573 3.58594 3.12618
RightLeg  12.6172 10.0988 1.59992
RightFoot  -0.624408 0.290973 -3.14454
RightToes  -3.4386e-010 1.2921e-014 -6.02303e-014
Spine  -7.90214 -6.65037 -4.14051
Spine1  10.2365 -8.53781 6.64486
HEad  10.3972 -4.09877 2.97645
LeftShoulder1  3.06303 -10.491 -15.6616
LeftArm  -5.51032 -34.0242 -46.2418
LeftForeArm  -8.71684 -21.582 -5.49483
LeftHand  0.256949 0.432523 -6.13173
RightShoulder  1.66878 2.23727 23.976
RightArm  -12.0779 29.9372 52.6597
RightForeArm  7.06551 33.5687 7.06689
RightHand  -0.0116987 -5.99854 -3.7194
LeftUpLeg  -3.50094 4.26452 -1.3712
LeftLeg  11.3859 23.5548 5.2279
LeftFoot  -9.52252 0.119143 -3.9085
LeftToes  -7.12384e-010 -7.51861e-011 -8.34901e-011
481
root  -15.779 40.08 -75.6222 -169.118 76.3422 -174.082
RightUpLeg  -14.6494 4.068 2.97664
RightLeg  12.4822 10.7432 1.5251
RightFoot  -0.849798 0.304364 -3.37469
RightToes  -3.4386e-010 1.2921e-014 -6.02303e-014
Spine  -7.70221 -6.85681 -3.43413
Spine1  9.64089 -8.76435 6.60201
HEad  10.026 -1.92202 2.26796
LeftShoulder1  3.01659 -10.1644 -15.8744
LeftArm  -5.92555 -34.083 -45.7164
LeftForeArm  -9.14314 -21.1246 -5.584
LeftHand  0.252584 0.370637 -5.94506
RightShoulder  1.69653 2.29561 24.1706
RightArm  -10.7407 31.7327 52.9579
RightForeArm  6.55807 32.2489 6.74816
RightHand  -0.0155926 -5.79313 -3.58289
LeftUpLeg  -2.86524 3.9979 -1.75638
LeftLeg  10.0206 24.98 4.82654
LeftFoot  -9.39103 0.129107 -4.27681
LeftToes  -7.12384e-010 -7.51861e-011 -8.34901e-011
482
root  -15.5035 40.0999 -75.8822 -168.331 77.0051 -173.907
RightUpLeg  -14.7887 3.63262 2.68828
RightLeg  12.4548 12.1158 1.83044
RightFoot  -1.21129 0.264725 -3.07688
RightToes  -3.4386e-010 1.2921e-014 -6.02303e-014
Spine  -7.99322 -7.03116 -3.36192
Spine1  10.0241 -9.2296 7.51193
HEad  9.24923 -0.118769 1.11868
LeftShoulder1  3.09876 -10.4335 -16.0475
LeftArm  -8.25734 -33.9942 -45.0619
LeftForeArm  -8.62128 -20.3632 -5.65265
LeftHand  0.296266 -0.015128 -6.41137
RightShoulder  1.70301 2.43009 23.5426
RightArm  -9.66411 33.5335 53.2679
RightForeArm  6.74425 31.8103 6.62441
RightHand  -0.0139847 -5.77541 -3.62489
LeftUpLeg  -2.25831 3.65655 -2.17718
LeftLeg  8.57521 26.0043 4.29814
LeftFoot  -9.38282 0.130109 -4.32044
LeftToes  -7.12384e-010 -7.51861e-011 -8.34901e-011
483
root  -15.2386 40.1059 -76.0903 -165.69 77.8186 -171.911
RightUpLeg  -14.9886 3.61648 2.86951
RightLeg  12.3221 12.7554 1.9184
RightFoot  -1.45701 0.264998 -3.17611
RightToes  -3.4386e-010 1.2921e-014 -6.02303e-014
Spine  -8.37478 -6.96197 -3.00802
Spine1  10.4199 -9.45978 8.36362
HEad  8.68131 1.20599 0.240244
LeftShoulder1  3.14637 -10.5373 -16.2378
LeftArm  -9.93263 -34.0046 -44.6804
LeftForeArm  -8.508 -19.9766 -5.66987
LeftHand  0.307519 -0.0251921 -6.64057
RightShoulder  1.65873 2.40422 22.8602
RightArm  -8.644 35.413 53.7973
RightForeArm  6.55799 31.3717 6.523
RightHand  -0.0110628 -5.92554 -3.77649
LeftUpLeg  -1.97707 3.6887 -2.13825
LeftLeg  7.58167 26.9267 3.86833
LeftFoot  -9.66301 0.119911 -4.23118
LeftToes  -7.12384e-010 -7.51861e-011 -8.34901e-011
484
root  -15.0155 40.0925 -76.2671 -163.1 78.1302 -169.853
RightUpLeg  -15.2187 3.58296 3.06862
RightLeg  12.3292 13.2734 2.04339
RightFoot  -1.68846 0.273202 -3.36814
RightToes  -3.4386e-010 1.2921e-014 -6.02303e-014
Spine  -7.61617 -7.18801 -1.90211
Spine1  9.28888 -9.57849 7.91859
HEad  8.83223 2.3932 0.473646
LeftShoulder1  3.0492 -10.1584 -16.1499
LeftArm  -10.4863 -33.8798 -44.3595
LeftForeArm  -9.00489 -19.6191 -5.74265
LeftHand  0.290152 0.0833129 -6.40969
RightShoulder  1.73061 2.58791 23.2008
RightArm  -7.44541 36.7737 54.1279
RightForeArm  5.82523 30.6227 6.37541
RightHand  -0.00682494 -6.0389 -3.94238
LeftUpLeg  -2.02574 3.6204 -2.06244
LeftLeg  7.30977 27.4384 3.87873
LeftFoot  -9.99183 0.109713 -4.22956
LeftToes  -7.12384e-010 -7.51861e-011 -8.34901e-011
